<svg width="200" height="26" viewBox="0 0 200 26" fill="none" xmlns="http://www.w3.org/2000/svg">
<g clip-path="url(#clip0_248_335)">
<path fill-rule="evenodd" clip-rule="evenodd" d="M128.148 24.5408C127.967 21.2811 127.787 18.0379 127.601 14.6971C127.306 15.0316 127.069 15.2938 126.841 15.5611C125.212 17.4505 123.584 19.3398 121.955 21.2292C121.684 21.5433 121.649 21.5408 121.39 21.2507L115.665 14.8415C115.608 14.7892 115.547 14.7401 115.484 14.6946L114.938 24.5446H108.951C108.951 24.2456 108.938 23.9504 108.951 23.6578C108.981 23.094 109.031 22.5302 109.065 21.9665C109.149 20.5493 109.232 19.132 109.312 17.7148C109.399 16.1642 109.482 14.6122 109.565 13.0603C109.624 11.9919 109.686 10.9239 109.75 9.85636C109.835 8.43914 109.919 7.0215 110.004 5.60344C110.088 4.18538 110.173 2.77829 110.257 1.38219C110.269 1.26602 110.308 1.15418 110.37 1.05533C114.155 5.20944 117.871 9.41675 121.645 13.6329L132.695 1.0376L132.796 1.07307C132.828 1.33912 132.873 1.60516 132.887 1.87247C132.958 3.17863 133.014 4.48478 133.09 5.78967C133.146 6.81584 133.217 7.84329 133.273 8.86946C133.357 10.3281 133.441 11.7867 133.526 13.2453C133.584 14.252 133.645 15.2583 133.708 16.2642C133.806 17.8136 133.91 19.363 134.004 20.9124C134.058 21.8373 134.095 22.7633 134.143 23.6894C134.158 23.9644 134.182 24.2393 134.205 24.5421L128.148 24.5408Z" fill="white"/>
<path fill-rule="evenodd" clip-rule="evenodd" d="M102.136 16.3783L106.913 24.5459C106.787 24.5547 106.716 24.5649 106.639 24.5649C104.604 24.5649 102.571 24.5649 100.536 24.5725C100.446 24.5794 100.356 24.5578 100.278 24.5107C100.201 24.4637 100.141 24.3935 100.105 24.3102C98.8599 22.0906 97.607 19.8761 96.3654 17.654C96.2311 17.4146 96.0918 17.293 95.7953 17.3082C95.229 17.3373 94.6551 17.317 94.0483 17.317V24.5459H87.9141V1.50509C88.0217 1.49876 88.1218 1.48735 88.2219 1.48735C91.5158 1.48735 94.8097 1.43541 98.1036 1.51776C100.341 1.5735 102.4 2.27789 104.058 3.86022C105.184 4.94044 105.927 6.35766 106.176 7.89777C106.424 9.1763 106.391 10.4934 106.08 11.758C105.543 13.8445 104.264 15.328 102.34 16.2681C102.286 16.2947 102.237 16.3251 102.136 16.3783ZM94.0369 9.62707C94.0369 10.5354 94.0369 11.4425 94.0369 12.3509C94.0369 12.5257 94.0508 12.6511 94.2776 12.646C95.3798 12.6207 96.4845 12.646 97.5829 12.5662C98.0528 12.5176 98.5073 12.3709 98.9169 12.1355C99.9925 11.5439 100.272 10.2871 100.122 9.11525C100.066 8.53713 99.8235 7.99298 99.43 7.56585C98.7966 6.90707 97.9845 6.71451 97.1281 6.67903C96.2007 6.64483 95.2708 6.67903 94.341 6.66637C94.0876 6.66637 94.0306 6.75885 94.0331 6.99322C94.0432 7.86864 94.0369 8.74025 94.0369 9.62707Z" fill="white"/>
<path fill-rule="evenodd" clip-rule="evenodd" d="M165.201 13.0479V24.536H159.41C159.41 24.4296 159.395 24.3206 159.395 24.2117C159.395 16.5808 159.395 8.94958 159.395 1.31788C159.41 1.19153 159.442 1.06766 159.488 0.949219C159.622 0.984047 159.75 1.0378 159.868 1.10885C161.354 2.32505 162.836 3.54379 164.314 4.76507L171.591 10.7676L173.954 12.7122C174.071 12.8098 174.193 12.9022 174.367 13.0403V1.51932H180.15C180.15 1.62067 180.165 1.72962 180.165 1.83857C180.165 9.4804 180.165 17.1239 180.165 24.7691C180.153 24.8866 180.129 25.0026 180.093 25.115C179.959 25.0852 179.831 25.0353 179.713 24.9668C177.749 23.362 175.789 21.7539 173.832 20.1425L165.524 13.3013C165.44 13.2367 165.354 13.1746 165.201 13.0479Z" fill="white"/>
<path fill-rule="evenodd" clip-rule="evenodd" d="M51.5383 24.5484H45.3965V1.50512C45.5232 1.49879 45.6283 1.48738 45.7373 1.48738C47.5438 1.48738 49.3504 1.49625 51.1583 1.47852C51.4877 1.47852 51.5459 1.58493 51.5447 1.88392C51.5345 4.76481 51.5447 7.64569 51.5447 10.5266V10.9979C51.6713 10.8585 51.7524 10.7914 51.812 10.7115C53.5316 8.40582 55.2499 6.09925 56.9669 3.79184C57.4737 3.10519 57.9804 2.41474 58.5074 1.73949C58.609 1.60783 58.7582 1.52137 58.923 1.49879C60.9981 1.48358 63.0746 1.48865 65.1497 1.48865C65.1902 1.48865 65.2308 1.48865 65.3334 1.50259C65.0876 1.83198 64.8672 2.13603 64.6404 2.42868C62.3896 5.36531 60.1367 8.30067 57.8816 11.2348C57.8147 11.3011 57.7756 11.3905 57.7723 11.4846C57.769 11.5788 57.8017 11.6707 57.8639 11.7415C59.4061 14.0734 60.942 16.4091 62.4715 18.7486C63.6894 20.6008 64.9056 22.4543 66.1201 24.309C66.1645 24.3761 66.1999 24.4483 66.2582 24.551C66.1505 24.5598 66.0745 24.5712 65.9972 24.5712C63.7561 24.5712 61.5163 24.5712 59.2752 24.5712C59.1897 24.5783 59.104 24.5602 59.0286 24.5192C58.9532 24.4783 58.8914 24.4162 58.8508 24.3407C57.1346 21.7106 55.4133 19.0793 53.687 16.4467C53.6363 16.3707 53.5793 16.2985 53.4944 16.1807C53.3018 16.4062 53.1207 16.6089 52.9496 16.8141C52.5392 17.3209 52.1211 17.815 51.7309 18.3344C51.6181 18.4881 51.5541 18.6721 51.5472 18.8627C51.5333 20.6287 51.5396 22.3935 51.5396 24.1595L51.5383 24.5484Z" fill="white"/>
<path fill-rule="evenodd" clip-rule="evenodd" d="M73.9756 6.64104V10.4683H82.2965V15.38H73.9769C73.9705 15.5219 73.9604 15.6334 73.9604 15.7398C73.9604 16.8344 73.9705 17.929 73.9528 19.0235C73.9528 19.3289 74.0491 19.4036 74.3405 19.4036C77.5727 19.3943 80.8054 19.3943 84.0385 19.4036C84.4426 19.4036 84.4439 19.4036 84.4439 19.8065C84.4439 21.2625 84.4439 22.7186 84.4439 24.1747V24.5547H67.8262V1.51904H83.9713V6.64104H73.9756Z" fill="white"/>
<path fill-rule="evenodd" clip-rule="evenodd" d="M43.2485 6.10423L38.5876 9.27144C38.243 8.87744 37.9364 8.48977 37.5918 8.13884C36.6721 7.20262 35.523 6.74527 34.2359 6.59832C33.1083 6.46529 32.015 6.55904 30.985 7.06833C29.6459 7.72711 28.8149 8.82929 28.298 10.2013C27.9816 11.0421 27.8194 11.933 27.8191 12.8314C27.8191 14.7836 28.2764 16.594 29.7194 18.0256C30.5625 18.8601 31.6707 19.3737 32.8524 19.4774C33.9922 19.613 35.1477 19.4556 36.2097 19.0201C37.3308 18.5539 38.1252 17.719 38.7434 16.6966L38.9613 16.3305L43.7476 19.404C43.2231 20.0931 42.7544 20.7823 42.2121 21.4082C40.5196 23.3579 38.3355 24.3853 35.7992 24.7021C33.3731 25.0099 30.9952 24.8705 28.7173 23.8912C25.526 22.5192 23.3179 20.2097 22.1688 16.9234C21.8071 15.8496 21.6035 14.729 21.5645 13.5966C21.4508 11.6071 21.8335 9.62062 22.6781 7.81579C23.5931 5.86029 25.0481 4.2071 26.8715 3.05105C28.4002 2.03869 30.158 1.42503 31.9846 1.26601C35.4863 0.983497 38.7409 1.65241 41.4279 4.09876C42.0779 4.68659 42.6188 5.40365 43.2485 6.10423Z" fill="white"/>
<path fill-rule="evenodd" clip-rule="evenodd" d="M198.913 4.25423L195.423 7.91425C195.101 7.66088 194.816 7.38723 194.495 7.17313C193.904 6.76491 193.234 6.48617 192.527 6.35517C191.821 6.22418 191.095 6.24388 190.397 6.413C189.48 6.62203 189.049 7.27321 189.167 8.1955C189.196 8.43409 189.29 8.65998 189.44 8.84806C189.589 9.03615 189.788 9.17907 190.014 9.26095C190.891 9.61314 191.788 9.92479 192.675 10.2288C193.921 10.652 195.183 11.0346 196.349 11.6655C197.751 12.4256 198.931 13.4062 199.542 14.9353C199.991 16.059 200.059 17.2309 199.963 18.4256C199.897 19.4669 199.598 20.4801 199.088 21.3901C198.219 22.8989 196.881 23.7971 195.257 24.3292C193.677 24.836 192.046 24.9551 190.404 24.8702C188.312 24.7625 186.32 24.2659 184.511 23.1586C183.501 22.5516 182.605 21.772 181.864 20.8554C181.814 20.7921 181.768 20.7288 181.693 20.6236L186.14 17.2854C186.257 17.4121 186.371 17.5235 186.476 17.6452C188.047 19.491 190.038 20.108 192.385 19.643C193.398 19.4429 193.935 18.7841 193.905 17.8428C193.903 17.592 193.831 17.3468 193.697 17.1351C193.562 16.9234 193.371 16.7537 193.145 16.6456C192.528 16.3387 191.893 16.068 191.244 15.8348C190.029 15.3825 188.782 15.0113 187.586 14.5147C186.081 13.8889 184.811 12.9374 183.988 11.4818C183.489 10.565 183.217 9.54271 183.192 8.49955C183.127 7.49916 183.275 6.49633 183.628 5.55785C184.293 3.86403 185.519 2.71244 187.164 1.98651C188.203 1.53177 189.317 1.27402 190.45 1.22639C192.35 1.1339 194.182 1.36448 195.941 2.09927C196.975 2.52246 197.908 3.16021 198.678 3.97045C198.757 4.0528 198.824 4.14655 198.913 4.25423Z" fill="white"/>
<path fill-rule="evenodd" clip-rule="evenodd" d="M22.8203 24.5511C22.6936 24.5574 22.6012 24.565 22.5112 24.5663C20.6008 24.5663 18.6903 24.5663 16.7798 24.5663C16.6854 24.5794 16.5893 24.5578 16.5095 24.5057C16.4296 24.4535 16.3713 24.3743 16.3453 24.2825C16.0273 23.5224 15.6789 22.7762 15.3584 22.0173C15.3338 21.9347 15.2803 21.8638 15.2078 21.8173C15.1353 21.7708 15.0484 21.7518 14.9631 21.7639C12.4539 21.7707 9.94418 21.7707 7.43406 21.7639C7.35417 21.7525 7.27284 21.7706 7.2054 21.8149C7.13796 21.8593 7.08907 21.9267 7.06793 22.0046C6.77782 22.742 6.4649 23.4717 6.16845 24.2065C6.07216 24.4497 5.95434 24.5764 5.65536 24.5764C3.88933 24.5561 2.12329 24.5663 0.357261 24.5663H0C0.202701 24.133 0.380064 23.7441 0.565029 23.3589C2.57092 19.1681 4.57851 14.9781 6.58778 10.7889C8.07172 7.68507 9.55567 4.58121 11.0396 1.47735C11.0943 1.34411 11.157 1.21424 11.2271 1.08842C11.2752 1.01241 11.369 0.898387 11.4387 0.90092C11.5084 0.903454 11.6046 1.01241 11.6452 1.09729C12.1874 2.22312 12.7254 3.34769 13.2592 4.47099C14.0607 6.15426 14.8631 7.83794 15.6663 9.52205C17.1189 12.5727 18.5725 15.6229 20.0269 18.6727C20.9095 20.5232 21.7925 22.3737 22.6759 24.2242C22.719 24.323 22.7621 24.4231 22.8203 24.5511ZM13.2719 17.2842L11.16 12.3738L9.08101 17.2842H13.2719Z" fill="white"/>
<path fill-rule="evenodd" clip-rule="evenodd" d="M157.996 24.5498C157.859 24.5562 157.76 24.565 157.661 24.565C155.761 24.565 153.861 24.565 151.96 24.5714C151.865 24.5837 151.769 24.5618 151.689 24.5096C151.608 24.4574 151.549 24.3782 151.522 24.2863C151.202 23.5262 150.86 22.7775 150.539 22.0186C150.517 21.9409 150.468 21.8735 150.401 21.8285C150.334 21.7835 150.253 21.7638 150.173 21.7728C147.653 21.7787 145.134 21.7787 142.615 21.7728C142.535 21.7631 142.454 21.7826 142.387 21.8277C142.32 21.8729 142.272 21.9407 142.251 22.0186C141.944 22.7787 141.618 23.5388 141.31 24.299C141.244 24.4599 141.174 24.5676 140.959 24.5663C139.09 24.5562 137.22 24.5663 135.352 24.56C135.312 24.56 135.272 24.5524 135.189 24.5435C135.385 24.1254 135.57 23.7276 135.757 23.3323C137.186 20.3493 138.616 17.3666 140.045 14.3844C141.997 10.305 143.948 6.22522 145.897 2.14502C146.062 1.8017 146.216 1.45204 146.389 1.11378C146.452 1.02735 146.528 0.950543 146.613 0.885742C146.689 0.961755 146.793 1.02637 146.837 1.11758C147.482 2.45372 148.121 3.79197 148.756 5.13233C149.572 6.84346 150.387 8.55502 151.202 10.267C152.645 13.2991 154.089 16.3311 155.533 19.3632C156.308 20.9907 157.085 22.6174 157.863 24.2432C157.906 24.3319 157.943 24.4244 157.996 24.5498ZM144.265 17.2805H148.455L146.342 12.3764L144.265 17.2805Z" fill="white"/>
</g>
<defs>
<clipPath id="clip0_248_335">
<rect width="200" height="24.2286" fill="white" transform="translate(0 0.885742)"/>
</clipPath>
</defs>
</svg>
