<svg width="19" height="19" viewBox="0 0 19 19" fill="none" xmlns="http://www.w3.org/2000/svg">
<path d="M16.5195 0.945312C17.05 0.945313 17.5587 1.15603 17.9337 1.5311C18.3088 1.90617 18.5195 2.41488 18.5195 2.94531V16.9453C18.5195 17.4757 18.3088 17.9845 17.9337 18.3595C17.5587 18.7346 17.05 18.9453 16.5195 18.9453H2.51953C1.9891 18.9453 1.48039 18.7346 1.10532 18.3595C0.730245 17.9845 0.519531 17.4757 0.519531 16.9453V2.94531C0.519531 2.41488 0.730245 1.90617 1.10532 1.5311C1.48039 1.15603 1.9891 0.945313 2.51953 0.945312H16.5195ZM16.0195 16.4453V11.1453C16.0195 10.2807 15.6761 9.45151 15.0647 8.84014C14.4533 8.22878 13.6241 7.88531 12.7595 7.88531C11.9095 7.88531 10.9195 8.40531 10.4395 9.18531V8.07531H7.64953V16.4453H10.4395V11.5153C10.4395 10.7453 11.0595 10.1153 11.8295 10.1153C12.2008 10.1153 12.5569 10.2628 12.8195 10.5254C13.082 10.7879 13.2295 11.144 13.2295 11.5153V16.4453H16.0195ZM4.39953 6.50531C4.8451 6.50531 5.27241 6.32831 5.58747 6.01325C5.90253 5.69819 6.07953 5.27088 6.07953 4.82531C6.07953 3.89531 5.32953 3.13531 4.39953 3.13531C3.95132 3.13531 3.52146 3.31337 3.20452 3.6303C2.88758 3.94724 2.70953 4.3771 2.70953 4.82531C2.70953 5.75531 3.46953 6.50531 4.39953 6.50531ZM5.78953 16.4453V8.07531H3.01953V16.4453H5.78953Z" fill="white"/>
</svg>
